<svg fill="" xmlns="http://www.w3.org/2000/svg" xmlns:xlink="http://www.w3.org/1999/xlink"><defs><symbol viewBox="0 0 24 24" id="add"><path d="M11 11V5H13V11H19V13H13V19H11V13H5V11H11Z" /></symbol><symbol viewBox="0 0 24 24" id="delete"><path d="M17 6H22V8H20V21C20 21.2652 19.8946 21.5196 19.7071 21.7071C19.5196 21.8946 19.2652 22 19 22H5C4.73478 22 4.48043 21.8946 4.29289 21.7071C4.10536 21.5196 4 21.2652 4 21V8H2V6H7V3C7 2.73478 7.10536 2.48043 7.29289 2.29289C7.48043 2.10536 7.73478 2 8 2H16C16.2652 2 16.5196 2.10536 16.7071 2.29289C16.8946 2.48043 17 2.73478 17 3V6ZM18 8H6V20H18V8ZM9 4V6H15V4H9Z" /></symbol><symbol viewBox="0 0 24 24" id="edit"><path d="M15.728 9.68596L14.314 8.27196L5 17.586V19H6.414L15.728 9.68596ZM17.142 8.27196L18.556 6.85796L17.142 5.44396L15.728 6.85796L17.142 8.27196ZM7.242 21H3V16.757L16.435 3.32196C16.6225 3.13449 16.8768 3.02917 17.142 3.02917C17.4072 3.02917 17.6615 3.13449 17.849 3.32196L20.678 6.15096C20.8655 6.33849 20.9708 6.5928 20.9708 6.85796C20.9708 7.12313 20.8655 7.37743 20.678 7.56496L7.243 21H7.242Z" /></symbol><symbol viewBox="0 0 24 24" id="reset"><path d="M5.463 4.43301C7.27756 2.86067 9.59899 1.99666 12 2.00001C17.523 2.00001 22 6.47701 22 12C22 14.136 21.33 16.116 20.19 17.74L17 12H20C20.0001 10.4316 19.5392 8.89781 18.6747 7.58927C17.8101 6.28072 16.5799 5.25517 15.1372 4.64013C13.6944 4.0251 12.1027 3.84771 10.56 4.13003C9.0172 4.41234 7.59145 5.14191 6.46 6.22801L5.463 4.43301ZM18.537 19.567C16.7224 21.1393 14.401 22.0034 12 22C6.477 22 2 17.523 2 12C2 9.86401 2.67 7.88401 3.81 6.26001L7 12H4C3.99987 13.5684 4.46075 15.1022 5.32534 16.4108C6.18992 17.7193 7.42007 18.7449 8.86282 19.3599C10.3056 19.9749 11.8973 20.1523 13.44 19.87C14.9828 19.5877 16.4085 18.8581 17.54 17.772L18.537 19.567Z" /></symbol><symbol viewBox="0 0 24 24" id="save"><path d="M7 19V13H17V19H19V7.828L16.172 5H5V19H7ZM4 3H17L21 7V20C21 20.2652 20.8946 20.5196 20.7071 20.7071C20.5196 20.8946 20.2652 21 20 21H4C3.73478 21 3.48043 20.8946 3.29289 20.7071C3.10536 20.5196 3 20.2652 3 20V4C3 3.73478 3.10536 3.48043 3.29289 3.29289C3.48043 3.10536 3.73478 3 4 3ZM9 15V19H15V15H9Z" /></symbol></defs></svg>